<?xml version="1.0" encoding="utf-8"?><svg xmlns="http://www.w3.org/2000/svg" xmlns:xlink="http://www.w3.org/1999/xlink" width="1920" height="880" preserveAspectRatio="xMidYMid" viewBox="0 0 1920 880" style="z-index:1;margin-right:-2px;display:block;background-repeat-y:initial;background-repeat-x:initial;background-color:rgb(35, 35, 35);animation-play-state:paused" ><g transform="translate(960,440) scale(1,1) translate(-960,-440)" style="transform:matrix(1, 0, 0, 1, 0, 0);animation-play-state:paused" ><defs style="animation-play-state:paused" ><linearGradient id="ldbk-photon-58piwy18yln-lg" x1="935" x2="1920" y1="0" y2="0" gradientUnits="userSpaceOnUse" style="animation-play-state:paused" ><stop stop-color="rgba(139, 139, 139, 0.6727217741935483)" offset="0" style="animation-play-state:paused" ></stop>

    
<stop stop-color="#7c7c7c" offset="1" style="animation-play-state:paused" ></stop></linearGradient>

  
<mask id="ldbk-photon-58piwy18yln-mask" style="animation-play-state:paused" ><g style="animation-play-state:paused" ><path d="M2220 -0.5 L930.1358800277169 -0.5 A15.5 15.5 0 0 1 930.1358800277169 31.5 L2220 31.5" fill="#fff" transform="matrix(1,0,0,1,0,0)" style="transform:matrix(1, 0, 0, 1, 0, 0);animation-play-state:paused" ></path>
<path d="M1969.7927908071836 -0.5 L1988.5855816143671 -0.5 A15.5 15.5 0 0 1 1988.5855816143671 31.5 L1969.7927908071836 31.5 A15.5 15.5 0 0 1 1969.7927908071836 -0.5" fill="#000" transform="matrix(1,0,0,1,0,0)" opacity="1" style="transform:matrix(1, 0, 0, 1, 0, 0);animation-play-state:paused" ></path>
<path d="M2220 30.5 L892.8100010520111 30.5 A15.5 15.5 0 0 0 892.8100010520111 62.5 L2220 62.5" fill="#fff" transform="matrix(1,0,0,1,0,0)" style="transform:matrix(1, 0, 0, 1, 0, 0);animation-play-state:paused" ></path>
<path d="M997.6766341187596 30.5 L1007.7779920309615 30.5 A15.5 15.5 0 0 1 1007.7779920309615 62.5 L997.6766341187596 62.5 A15.5 15.5 0 0 1 997.6766341187596 30.5" fill="#fff" transform="matrix(1,0,0,1,0,0)" opacity="0.985222" style="transform:matrix(1, 0, 0, 1, 0, 0);opacity:0.985222;animation-play-state:paused" ></path>
<path d="M2220 61.5 L941.808198944702 61.5 A15.5 15.5 0 0 1 941.808198944702 93.5 L2220 93.5" fill="#fff" transform="matrix(1,0,0,1,0,0)" style="transform:matrix(1, 0, 0, 1, 0, 0);animation-play-state:paused" ></path>
<path d="M1969.5506619337243 61.5 L1988.1013238674486 61.5 A15.5 15.5 0 0 1 1988.1013238674486 93.5 L1969.5506619337243 93.5 A15.5 15.5 0 0 1 1969.5506619337243 61.5" fill="#000" transform="matrix(1,0,0,1,-1387.516845703125,0)" opacity="0.541872" style="transform:matrix(1, 0, 0, 1, -1387.52, 0);opacity:0.541872;animation-play-state:paused" ></path>
<path d="M2220 92.5 L910.0391818752287 92.5 A15.5 15.5 0 0 0 910.0391818752287 124.5 L2220 124.5" fill="#fff" transform="matrix(1,0,0,1,0,0)" style="transform:matrix(1, 0, 0, 1, 0, 0);animation-play-state:paused" ></path>
<path d="M980.2826751114176 92.5 L1019.4539785534791 92.5 A15.5 15.5 0 0 1 1019.4539785534791 124.5 L980.2826751114176 124.5 A15.5 15.5 0 0 1 980.2826751114176 92.5" fill="#fff" transform="matrix(1,0,0,1,0,0)" opacity="0.0985222" style="transform:matrix(1, 0, 0, 1, 0, 0);opacity:0.0985222;animation-play-state:paused" ></path>
<path d="M2220 123.5 L931.843519916355 123.5 A15.5 15.5 0 0 1 931.843519916355 155.5 L2220 155.5" fill="#fff" transform="matrix(1,0,0,1,0,0)" style="transform:matrix(1, 0, 0, 1, 0, 0);animation-play-state:paused" ></path>
<path d="M1961.0482004457403 123.5 L1971.0964008914807 123.5 A15.5 15.5 0 0 1 1971.0964008914807 155.5 L1961.0482004457403 155.5 A15.5 15.5 0 0 1 1961.0482004457403 123.5" fill="#000" transform="matrix(1,0,0,1,-1706.3583984375,0)" opacity="0.246305" style="transform:matrix(1, 0, 0, 1, -1706.36, 0);opacity:0.246305;animation-play-state:paused" ></path>
<path d="M2220 154.5 L898.260500141386 154.5 A15.5 15.5 0 0 0 898.260500141386 186.5 L2220 186.5" fill="#fff" transform="matrix(1,0,0,1,0,0)" style="transform:matrix(1, 0, 0, 1, 0, 0);animation-play-state:paused" ></path>
<path d="M954.436114698809 154.5 L976.8806419594601 154.5 A15.5 15.5 0 0 1 976.8806419594601 186.5 L954.436114698809 186.5 A15.5 15.5 0 0 1 954.436114698809 154.5" fill="#fff" transform="matrix(1,0,0,1,0,0)" opacity="0.640394" style="transform:matrix(1, 0, 0, 1, 0, 0);opacity:0.640394;animation-play-state:paused" ></path>
<path d="M2220 185.5 L938.5685906741746 185.5 A15.5 15.5 0 0 1 938.5685906741746 217.5 L2220 217.5" fill="#fff" transform="matrix(1,0,0,1,0,0)" style="transform:matrix(1, 0, 0, 1, 0, 0);animation-play-state:paused" ></path>
<path d="M1976.8721261275166 185.5 L2002.7442522550332 185.5 A15.5 15.5 0 0 1 2002.7442522550332 217.5 L1976.8721261275166 217.5 A15.5 15.5 0 0 1 1976.8721261275166 185.5" fill="#000" transform="matrix(1,0,0,1,-1505.857421875,0)" opacity="0.197044" style="transform:matrix(1, 0, 0, 1, -1505.86, 0);opacity:0.197044;animation-play-state:paused" ></path>
<path d="M2220 216.5 L904.5522077773694 216.5 A15.5 15.5 0 0 0 904.5522077773694 248.5 L2220 248.5" fill="#fff" transform="matrix(1,0,0,1,0,0)" style="transform:matrix(1, 0, 0, 1, 0, 0);animation-play-state:paused" ></path>
<path d="M976.3021579212907 216.5 L992.787206489 216.5 A15.5 15.5 0 0 1 992.787206489 248.5 L976.3021579212907 248.5 A15.5 15.5 0 0 1 976.3021579212907 216.5" fill="#fff" transform="matrix(1,0,0,1,0,0)" opacity="0.788177" style="transform:matrix(1, 0, 0, 1, 0, 0);opacity:0.788177;animation-play-state:paused" ></path>
<path d="M2220 247.5 L910.8205168024103 247.5 A15.5 15.5 0 0 1 910.8205168024103 279.5 L2220 279.5" fill="#fff" transform="matrix(1,0,0,1,0,0)" style="transform:matrix(1, 0, 0, 1, 0, 0);animation-play-state:paused" ></path>
<path d="M1961.5401086528168 247.5 L1972.0802173056336 247.5 A15.5 15.5 0 0 1 1972.0802173056336 279.5 L1961.5401086528168 279.5 A15.5 15.5 0 0 1 1961.5401086528168 247.5" fill="#000" transform="matrix(1,0,0,1,-1529.2073974609375,0)" opacity="0.246305" style="transform:matrix(1, 0, 0, 1, -1529.21, 0);opacity:0.246305;animation-play-state:paused" ></path>
<path d="M2220 278.5 L881.9850516339759 278.5 A15.5 15.5 0 0 0 881.9850516339759 310.5 L2220 310.5" fill="#fff" transform="matrix(1,0,0,1,0,0)" style="transform:matrix(1, 0, 0, 1, 0, 0);animation-play-state:paused" ></path>
<path d="M982.8303721673624 278.5 L995.7556053592313 278.5 A15.5 15.5 0 0 1 995.7556053592313 310.5 L982.8303721673624 310.5 A15.5 15.5 0 0 1 982.8303721673624 278.5" fill="#fff" transform="matrix(1,0,0,1,0,0)" opacity="0.295566" style="transform:matrix(1, 0, 0, 1, 0, 0);opacity:0.295566;animation-play-state:paused" ></path>
<path d="M2220 309.5 L916.3970466260454 309.5 A15.5 15.5 0 0 1 916.3970466260454 341.5 L2220 341.5" fill="#fff" transform="matrix(1,0,0,1,0,0)" style="transform:matrix(1, 0, 0, 1, 0, 0);animation-play-state:paused" ></path>
<path d="M1966.8988216027824 309.5 L1982.7976432055648 309.5 A15.5 15.5 0 0 1 1982.7976432055648 341.5 L1966.8988216027824 341.5 A15.5 15.5 0 0 1 1966.8988216027824 309.5" fill="#000" transform="matrix(1,0,0,1,-247.49781799316406,0)" opacity="1" style="transform:matrix(1, 0, 0, 1, -247.498, 0);animation-play-state:paused" ></path>
<path d="M2220 340.5 L873.4284052439243 340.5 A15.5 15.5 0 0 0 873.4284052439243 372.5 L2220 372.5" fill="#fff" transform="matrix(1,0,0,1,0,0)" style="transform:matrix(1, 0, 0, 1, 0, 0);animation-play-state:paused" ></path>
<path d="M1011.9823833125683 340.5 L1024.685806031571 340.5 A15.5 15.5 0 0 1 1024.685806031571 372.5 L1011.9823833125683 372.5 A15.5 15.5 0 0 1 1011.9823833125683 340.5" fill="#fff" transform="matrix(1,0,0,1,0,0)" opacity="1" style="transform:matrix(1, 0, 0, 1, 0, 0);animation-play-state:paused" ></path>
<path d="M2220 371.5 L918.9487057615145 371.5 A15.5 15.5 0 0 1 918.9487057615145 403.5 L2220 403.5" fill="#fff" transform="matrix(1,0,0,1,0,0)" style="transform:matrix(1, 0, 0, 1, 0, 0);animation-play-state:paused" ></path>
<path d="M1970.9905534205293 371.5 L1990.9811068410586 371.5 A15.5 15.5 0 0 1 1990.9811068410586 403.5 L1970.9905534205293 403.5 A15.5 15.5 0 0 1 1970.9905534205293 371.5" fill="#000" transform="matrix(1,0,0,1,-745.4423828125,0)" opacity="0.738916" style="transform:matrix(1, 0, 0, 1, -745.442, 0);opacity:0.738916;animation-play-state:paused" ></path>
<path d="M2220 402.5 L912.068216764413 402.5 A15.5 15.5 0 0 0 912.068216764413 434.5 L2220 434.5" fill="#fff" transform="matrix(1,0,0,1,0,0)" style="transform:matrix(1, 0, 0, 1, 0, 0);animation-play-state:paused" ></path>
<path d="M1009.1684096802591 402.5 L1029.6623685383213 402.5 A15.5 15.5 0 0 1 1029.6623685383213 434.5 L1009.1684096802591 434.5 A15.5 15.5 0 0 1 1009.1684096802591 402.5" fill="#fff" transform="matrix(1,0,0,1,0,0)" opacity="1" style="transform:matrix(1, 0, 0, 1, 0, 0);animation-play-state:paused" ></path>
<path d="M2220 433.5 L947.5128471850667 433.5 A15.5 15.5 0 0 1 947.5128471850667 465.5 L2220 465.5" fill="#fff" transform="matrix(1,0,0,1,0,0)" style="transform:matrix(1, 0, 0, 1, 0, 0);animation-play-state:paused" ></path>
<path d="M1966.1300513878602 433.5 L1981.2601027757205 433.5 A15.5 15.5 0 0 1 1981.2601027757205 465.5 L1966.1300513878602 465.5 A15.5 15.5 0 0 1 1966.1300513878602 433.5" fill="#000" transform="matrix(1,0,0,1,-1304.400390625,0)" opacity="0.147783" style="transform:matrix(1, 0, 0, 1, -1304.4, 0);opacity:0.147783;animation-play-state:paused" ></path>
<path d="M2220 464.5 L886.485291910233 464.5 A15.5 15.5 0 0 0 886.485291910233 496.5 L2220 496.5" fill="#fff" transform="matrix(1,0,0,1,0,0)" style="transform:matrix(1, 0, 0, 1, 0, 0);animation-play-state:paused" ></path>
<path d="M1034.5683674238444 464.5 L1066.0330056474502 464.5 A15.5 15.5 0 0 1 1066.0330056474502 496.5 L1034.5683674238444 496.5 A15.5 15.5 0 0 1 1034.5683674238444 464.5" fill="#fff" transform="matrix(1,0,0,1,0,0)" opacity="0.640394" style="transform:matrix(1, 0, 0, 1, 0, 0);opacity:0.640394;animation-play-state:paused" ></path>
<path d="M2220 495.5 L948.2364524062018 495.5 A15.5 15.5 0 0 1 948.2364524062018 527.5 L2220 527.5" fill="#fff" transform="matrix(1,0,0,1,0,0)" style="transform:matrix(1, 0, 0, 1, 0, 0);animation-play-state:paused" ></path>
<path d="M1967.4841293063212 495.5 L1983.9682586126423 495.5 A15.5 15.5 0 0 1 1983.9682586126423 527.5 L1967.4841293063212 527.5 A15.5 15.5 0 0 1 1967.4841293063212 495.5" fill="#000" transform="matrix(1,0,0,1,-1472.84619140625,0)" opacity="0.049261" style="transform:matrix(1, 0, 0, 1, -1472.85, 0);opacity:0.049261;animation-play-state:paused" ></path>
<path d="M2220 526.5 L919.5891726063985 526.5 A15.5 15.5 0 0 0 919.5891726063985 558.5 L2220 558.5" fill="#fff" transform="matrix(1,0,0,1,0,0)" style="transform:matrix(1, 0, 0, 1, 0, 0);animation-play-state:paused" ></path>
<path d="M1050.6029313621248 526.5 L1082.2481177142338 526.5 A15.5 15.5 0 0 1 1082.2481177142338 558.5 L1050.6029313621248 558.5 A15.5 15.5 0 0 1 1050.6029313621248 526.5" fill="#fff" transform="matrix(1,0,0,1,0,0)" opacity="1" style="transform:matrix(1, 0, 0, 1, 0, 0);animation-play-state:paused" ></path>
<path d="M2220 557.5 L972.7982297921329 557.5 A15.5 15.5 0 0 1 972.7982297921329 589.5 L2220 589.5" fill="#fff" transform="matrix(1,0,0,1,0,0)" style="transform:matrix(1, 0, 0, 1, 0, 0);animation-play-state:paused" ></path>
<path d="M1967.1635504591802 557.5 L1983.3271009183604 557.5 A15.5 15.5 0 0 1 1983.3271009183604 589.5 L1967.1635504591802 589.5 A15.5 15.5 0 0 1 1967.1635504591802 557.5" fill="#000" transform="matrix(1,0,0,1,-1044.3768310546875,0)" opacity="0.591133" style="transform:matrix(1, 0, 0, 1, -1044.38, 0);opacity:0.591133;animation-play-state:paused" ></path>
<path d="M2220 588.5 L967.7246791640752 588.5 A15.5 15.5 0 0 0 967.7246791640752 620.5 L2220 620.5" fill="#fff" transform="matrix(1,0,0,1,0,0)" style="transform:matrix(1, 0, 0, 1, 0, 0);animation-play-state:paused" ></path>
<path d="M1021.6686879666519 588.5 L1047.4150755432945 588.5 A15.5 15.5 0 0 1 1047.4150755432945 620.5 L1021.6686879666519 620.5 A15.5 15.5 0 0 1 1021.6686879666519 588.5" fill="#fff" transform="matrix(1,0,0,1,0,0)" opacity="0.0985221" style="transform:matrix(1, 0, 0, 1, 0, 0);opacity:0.0985221;animation-play-state:paused" ></path>
<path d="M2220 619.5 L995.5314785481352 619.5 A15.5 15.5 0 0 1 995.5314785481352 651.5 L2220 651.5" fill="#fff" transform="matrix(1,0,0,1,0,0)" style="transform:matrix(1, 0, 0, 1, 0, 0);animation-play-state:paused" ></path>
<path d="M1988.1627984957968 619.5 L2025.3255969915936 619.5 A15.5 15.5 0 0 1 2025.3255969915936 651.5 L1988.1627984957968 651.5 A15.5 15.5 0 0 1 1988.1627984957968 619.5" fill="#000" transform="matrix(1,0,0,1,-254.39984130859375,0)" opacity="1" style="transform:matrix(1, 0, 0, 1, -254.4, 0);animation-play-state:paused" ></path>
<path d="M2220 650.5 L943.5425543536256 650.5 A15.5 15.5 0 0 0 943.5425543536256 682.5 L2220 682.5" fill="#fff" transform="matrix(1,0,0,1,0,0)" style="transform:matrix(1, 0, 0, 1, 0, 0);animation-play-state:paused" ></path>
<path d="M1025.7350720585391 650.5 L1064.7956342172492 650.5 A15.5 15.5 0 0 1 1064.7956342172492 682.5 L1025.7350720585391 682.5 A15.5 15.5 0 0 1 1025.7350720585391 650.5" fill="#fff" transform="matrix(1,0,0,1,0,0)" opacity="0.935961" style="transform:matrix(1, 0, 0, 1, 0, 0);opacity:0.935961;animation-play-state:paused" ></path>
<path d="M2220 681.5 L987.2201879876984 681.5 A15.5 15.5 0 0 1 987.2201879876984 713.5 L2220 713.5" fill="#fff" transform="matrix(1,0,0,1,0,0)" style="transform:matrix(1, 0, 0, 1, 0, 0);animation-play-state:paused" ></path>
<path d="M1984.2056754012929 681.5 L2017.4113508025857 681.5 A15.5 15.5 0 0 1 2017.4113508025857 713.5 L1984.2056754012929 713.5 A15.5 15.5 0 0 1 1984.2056754012929 681.5" fill="#000" transform="matrix(1,0,0,1,-1204.7630615234375,0)" opacity="0.246305" style="transform:matrix(1, 0, 0, 1, -1204.76, 0);opacity:0.246305;animation-play-state:paused" ></path>
<path d="M2220 712.5 L946.4522496857645 712.5 A15.5 15.5 0 0 0 946.4522496857645 744.5 L2220 744.5" fill="#fff" transform="matrix(1,0,0,1,0,0)" style="transform:matrix(1, 0, 0, 1, 0, 0);animation-play-state:paused" ></path>
<path d="M1046.6157755127726 712.5 L1076.4258907603341 712.5 A15.5 15.5 0 0 1 1076.4258907603341 744.5 L1046.6157755127726 744.5 A15.5 15.5 0 0 1 1046.6157755127726 712.5" fill="#fff" transform="matrix(1,0,0,1,0,0)" opacity="0.344828" style="transform:matrix(1, 0, 0, 1, 0, 0);opacity:0.344828;animation-play-state:paused" ></path>
<path d="M2220 743.5 L962.5952673838093 743.5 A15.5 15.5 0 0 1 962.5952673838093 775.5 L2220 775.5" fill="#fff" transform="matrix(1,0,0,1,0,0)" style="transform:matrix(1, 0, 0, 1, 0, 0);animation-play-state:paused" ></path>
<path d="M1979.038994832509 743.5 L2007.0779896650179 743.5 A15.5 15.5 0 0 1 2007.0779896650179 775.5 L1979.038994832509 775.5 A15.5 15.5 0 0 1 1979.038994832509 743.5" fill="#000" transform="matrix(1,0,0,1,-1772.171630859375,0)" opacity="0.0492611" style="transform:matrix(1, 0, 0, 1, -1772.17, 0);opacity:0.0492611;animation-play-state:paused" ></path>
<path d="M2220 774.5 L914.3704168123121 774.5 A15.5 15.5 0 0 0 914.3704168123121 806.5 L2220 806.5" fill="#fff" transform="matrix(1,0,0,1,0,0)" style="transform:matrix(1, 0, 0, 1, 0, 0);animation-play-state:paused" ></path>
<path d="M1050.958813029935 774.5 L1062.9157686388662 774.5 A15.5 15.5 0 0 1 1062.9157686388662 806.5 L1050.958813029935 806.5 A15.5 15.5 0 0 1 1050.958813029935 774.5" fill="#fff" transform="matrix(1,0,0,1,0,0)" opacity="0.344828" style="transform:matrix(1, 0, 0, 1, 0, 0);opacity:0.344828;animation-play-state:paused" ></path>
<path d="M2220 805.5 L982.7712367258694 805.5 A15.5 15.5 0 0 1 982.7712367258694 837.5 L2220 837.5" fill="#fff" transform="matrix(1,0,0,1,0,0)" style="transform:matrix(1, 0, 0, 1, 0, 0);animation-play-state:paused" ></path>
<path d="M1990.3463406652334 805.5 L2029.6926813304667 805.5 A15.5 15.5 0 0 1 2029.6926813304667 837.5 L1990.3463406652334 837.5 A15.5 15.5 0 0 1 1990.3463406652334 805.5" fill="#000" transform="matrix(1,0,0,1,-1194.0916748046875,0)" opacity="0.44335" style="transform:matrix(1, 0, 0, 1, -1194.09, 0);opacity:0.44335;animation-play-state:paused" ></path>
<path d="M2220 836.5 L928.8144295294483 836.5 A15.5 15.5 0 0 0 928.8144295294483 868.5 L2220 868.5" fill="#fff" transform="matrix(1,0,0,1,0,0)" style="transform:matrix(1, 0, 0, 1, 0, 0);animation-play-state:paused" ></path>
<path d="M1015.3047705759337 836.5 L1048.514422570002 836.5 A15.5 15.5 0 0 1 1048.514422570002 868.5 L1015.3047705759337 868.5 A15.5 15.5 0 0 1 1015.3047705759337 836.5" fill="#fff" transform="matrix(1,0,0,1,0,0)" opacity="0.886699" style="transform:matrix(1, 0, 0, 1, 0, 0);opacity:0.886699;animation-play-state:paused" ></path>
<path d="M2220 867.5 L960.1941641115008 867.5 A15.5 15.5 0 0 1 960.1941641115008 899.5 L2220 899.5" fill="#fff" transform="matrix(1,0,0,1,0,0)" style="transform:matrix(1, 0, 0, 1, 0, 0);animation-play-state:paused" ></path>
<path d="M1974.5222210083257 867.5 L1998.0444420166514 867.5 A15.5 15.5 0 0 1 1998.0444420166514 899.5 L1974.5222210083257 899.5 A15.5 15.5 0 0 1 1974.5222210083257 867.5" fill="#000" transform="matrix(1,0,0,1,-1651.670166015625,0)" opacity="0.147783" style="transform:matrix(1, 0, 0, 1, -1651.67, 0);opacity:0.147783;animation-play-state:paused" ></path></g></mask></defs>


<rect x="0" y="0" width="1920" height="880" fill="url(#ldbk-photon-58piwy18yln-lg)" mask="url(#ldbk-photon-58piwy18yln-mask)" style="animation-play-state:paused" ></rect></g></svg>